<svg width="2652" height="478" viewBox="0 0 2652 478" fill="none" xmlns="http://www.w3.org/2000/svg">
<path d="M237.706 406.323C330.307 406.323 405.375 331.255 405.375 238.654C405.375 146.052 330.307 70.9837 237.706 70.9837C145.104 70.9837 70.0359 146.052 70.0359 238.654C70.0359 331.255 145.104 406.323 237.706 406.323Z" stroke="#0777AE" stroke-width="37.0211" stroke-miterlimit="10"/>
<path d="M63.8341 187.646L57.6347 217.112V260.544L63.8341 289.733L28.9256 270.711L0.456299 261.061V216.318L28.9256 206.669L63.8341 187.646Z" fill="#0777AE"/>
<path d="M150.742 79.547L125.511 96.0141L94.8367 126.688L78.5725 151.707L67.3361 113.561L54.0332 86.6412L85.676 55.0077L112.623 68.3106L150.742 79.547Z" fill="#0777AE"/>
<path d="M79.5993 326.233L96.0665 351.492L126.778 382.166L151.76 398.403L113.65 409.667L86.6936 422.97L55.0601 391.336L68.3629 364.38L79.5993 326.233Z" fill="#0777AE"/>
<path d="M186.672 413.932L216.174 420.132H259.598L288.75 413.932L269.727 448.841L260.077 477.31H215.344L205.694 448.841L186.672 413.932Z" fill="#0777AE"/>
<path d="M412.283 290.398L418.492 260.923V217.499L412.283 188.348L447.201 207.333L475.67 216.983V261.716L447.201 271.366L412.283 290.398Z" fill="#0777AE"/>
<path d="M325.351 398.507L350.61 382.031L381.284 351.366L397.548 326.337L408.784 364.493L422.06 391.413L390.454 423.046L363.497 409.743L325.351 398.507Z" fill="#0777AE"/>
<path d="M397.507 151.707L381.068 126.448L350.357 95.7743L325.338 79.547L363.493 68.2737L390.441 55.0077L422.083 86.6043L408.744 113.561L397.507 151.707Z" fill="#0777AE"/>
<path d="M289.423 64.0677L259.958 57.8683H216.534L187.373 64.0677L206.396 29.1591L216.018 0.68988H260.788L270.438 29.1591L289.423 64.0677Z" fill="#0777AE"/>
<path d="M284.487 193.565C309.856 218.935 309.856 260.117 284.487 285.486C259.117 310.856 217.972 310.856 192.566 285.486C167.168 260.117 167.196 218.935 192.566 193.565C217.935 168.196 259.117 168.168 284.487 193.565Z" fill="#0777AE"/>
<path d="M675.877 62.775H646.375V372.717H675.877V62.775Z" fill="#0278AF"/>
<path d="M734.943 148.762H762.277V187.398H763.135C773.126 160.478 803.081 142.212 834.751 142.212C897.714 142.212 916.81 175.23 916.81 228.617V372.743H889.448V232.952C889.448 194.317 876.865 165.23 832.583 165.23C788.302 165.23 763.135 198.21 762.277 242.049V372.706H734.943V148.753V148.762Z" fill="#0278AF"/>
<path d="M1157.74 354.477C1157.29 421.305 1131.69 462.146 1058.35 462.146C1013.65 462.146 969.362 442.155 965.469 394.423H992.804C998.902 427.403 1027.99 439.119 1058.36 439.119C1108.71 439.119 1130.43 409.174 1130.43 354.477V324.08H1129.57C1116.99 351.442 1090.49 370.123 1058.4 370.123C986.743 370.123 957.24 318.914 957.24 255.084C957.24 191.254 993.708 142.212 1058.4 142.212C1090.93 142.212 1118.71 162.646 1129.57 187.398H1130.43V148.725H1157.76V354.477H1157.74ZM1130.38 258.119C1130.38 214.28 1109.97 165.239 1058.31 165.239C1006.65 165.239 984.492 211.697 984.492 258.119C984.492 304.541 1007.92 347.106 1058.31 347.106C1105.63 347.106 1130.38 303.683 1130.38 258.119Z" fill="#0278AF"/>
<path d="M1225.93 268.123C1226.34 308.069 1247.19 356.28 1299.71 356.28C1339.66 356.28 1361.36 332.811 1370.05 298.964H1397.39C1385.67 349.767 1356.17 379.27 1299.75 379.27C1228.55 379.27 1198.59 324.573 1198.59 260.78C1198.59 201.738 1228.54 142.29 1299.75 142.29C1370.96 142.29 1400.45 205.225 1398.28 268.151H1225.93V268.114V268.123ZM1370.88 245.134C1369.57 203.915 1343.96 165.28 1299.71 165.28C1255.46 165.28 1230.24 204.358 1225.93 245.134H1370.88Z" fill="#0278AF"/>
<path d="M1435.14 148.735H1460.29V186.503H1461.6C1475.94 159.584 1499.37 142.212 1534.94 142.212C1564.45 142.212 1590.95 156.549 1599.19 186.051C1612.67 156.549 1640.86 142.212 1670.39 142.212C1719.43 142.212 1744.63 167.822 1744.63 220.793V372.716H1717.26V222.103C1717.26 185.193 1703.37 165.239 1664.29 165.239C1616.98 165.239 1603.53 204.317 1603.53 245.988V372.743H1576.2V220.793C1576.65 190.396 1564.03 165.239 1529.33 165.239C1482.01 165.239 1462.91 200.802 1462.5 247.713V372.753H1435.16V148.735H1435.13H1435.14Z" fill="#0278AF"/>
<path d="M1794.15 217.343C1796.73 164.824 1833.64 142.212 1884.86 142.212C1924.35 142.212 1967.34 154.381 1967.34 214.28V333.213C1967.34 343.656 1972.54 349.717 1983.4 349.717C1986.43 349.717 1989.91 348.887 1992.08 347.992V370.981C1986.01 372.291 1981.63 372.743 1974.26 372.743C1946.49 372.743 1942.14 357.134 1942.14 333.665H1941.28C1922.16 362.752 1902.65 379.266 1859.68 379.266C1816.7 379.266 1784.58 358.832 1784.58 313.711C1784.58 250.776 1845.79 248.571 1904.82 241.643C1927.4 239.06 1939.98 235.988 1939.98 211.245C1939.98 174.372 1913.52 165.239 1881.39 165.239C1847.54 165.239 1822.35 180.848 1821.49 217.352H1794.16L1794.15 217.343ZM1939.96 250.324H1939.11C1935.63 256.8 1923.46 259.005 1916.12 260.315C1869.66 268.516 1811.94 268.138 1811.94 311.939C1811.94 339.302 1836.23 356.23 1861.87 356.23C1903.54 356.23 1940.42 329.726 1940 285.887V250.324H1939.96Z" fill="#0278AF"/>
<path d="M2065.43 148.758H2111V171.748H2065.43V322.84C2065.43 340.654 2068.05 351.032 2087.55 352.342C2095.38 352.342 2103.2 351.89 2110.99 351.032V374.464C2102.75 374.464 2094.93 375.322 2086.69 375.322C2050.22 375.322 2037.65 363.154 2038.06 324.971V171.738H1998.98V148.749H2038.06V81.4781H2065.4V148.749H2065.43V148.758Z" fill="#0278AF"/>
<path d="M2150.96 62.775H2178.32V106.614H2150.96V62.775ZM2150.96 148.727H2178.32V372.708H2150.96V148.727Z" fill="#0278AF"/>
<path d="M2388.83 219.031C2381.46 185.599 2361.05 165.202 2325.49 165.202C2272.97 165.202 2246.91 212.97 2246.91 260.702C2246.91 308.434 2272.93 356.202 2325.49 356.202C2359.36 356.202 2387.14 329.698 2390.59 292.373H2417.92C2410.55 346.202 2375.39 379.192 2325.49 379.192C2256.91 379.192 2219.58 324.947 2219.58 260.702C2219.58 196.457 2256.91 142.212 2325.49 142.212C2373.22 142.212 2410.13 167.822 2416.2 219.031H2388.84H2388.83Z" fill="#0278AF"/>
<path d="M2453.52 217.343C2456.14 164.824 2493.01 142.212 2544.27 142.212C2583.76 142.212 2626.74 154.381 2626.74 214.28V333.213C2626.74 343.656 2631.98 349.717 2642.84 349.717C2645.88 349.717 2649.36 348.887 2651.52 347.992V370.981C2645.45 372.291 2641.08 372.743 2633.71 372.743C2605.93 372.743 2601.55 357.134 2601.55 333.665H2600.69C2581.6 362.752 2562.09 379.266 2519.11 379.266C2476.13 379.266 2443.98 358.832 2443.98 313.711C2443.98 250.776 2505.23 248.571 2564.26 241.643C2586.8 239.06 2599.42 235.988 2599.42 211.245C2599.42 174.372 2572.91 165.239 2540.79 165.239C2506.98 165.239 2481.75 180.848 2480.93 217.352H2453.53L2453.52 217.343ZM2599.41 250.324H2598.51C2595.04 256.8 2582.91 259.005 2575.49 260.315C2529.03 268.516 2471.37 268.138 2471.37 311.939C2471.37 339.302 2495.67 356.23 2521.24 356.23C2562.91 356.23 2599.82 329.726 2599.41 285.887V250.324Z" fill="#0278AF"/>
<path d="M560.21 6.45685H542.635V471.587H560.21V6.45685Z" fill="#BDBEC0"/>
</svg>
